<svg width="28" height="28" viewBox="0 0 28 28" fill="none" xmlns="http://www.w3.org/2000/svg">
<path d="M23.3333 21.0007H22.1667V19.834C22.1667 19.5246 22.0438 19.2278 21.825 19.009C21.6062 18.7902 21.3094 18.6673 21 18.6673C20.6906 18.6673 20.3938 18.7902 20.175 19.009C19.9562 19.2278 19.8333 19.5246 19.8333 19.834V21.0007H18.6667C18.3572 21.0007 18.0605 21.1236 17.8417 21.3424C17.6229 21.5612 17.5 21.8579 17.5 22.1673C17.5 22.4767 17.6229 22.7735 17.8417 22.9923C18.0605 23.2111 18.3572 23.334 18.6667 23.334H19.8333V24.5007C19.8333 24.8101 19.9562 25.1068 20.175 25.3256C20.3938 25.5444 20.6906 25.6673 21 25.6673C21.3094 25.6673 21.6062 25.5444 21.825 25.3256C22.0438 25.1068 22.1667 24.8101 22.1667 24.5007V23.334H23.3333C23.6428 23.334 23.9395 23.2111 24.1583 22.9923C24.3771 22.7735 24.5 22.4767 24.5 22.1673C24.5 21.8579 24.3771 21.5612 24.1583 21.3424C23.9395 21.1236 23.6428 21.0007 23.3333 21.0007ZM15.1667 23.334H7C6.69058 23.334 6.39383 23.2111 6.17504 22.9923C5.95625 22.7735 5.83333 22.4767 5.83333 22.1673V5.83398C5.83333 5.52456 5.95625 5.22782 6.17504 5.00903C6.39383 4.79023 6.69058 4.66732 7 4.66732H12.8333V8.16732C12.8333 9.09558 13.2021 9.98581 13.8585 10.6422C14.5148 11.2986 15.4051 11.6673 16.3333 11.6673H19.8333V15.1673C19.8333 15.4767 19.9562 15.7735 20.175 15.9923C20.3938 16.2111 20.6906 16.334 21 16.334C21.3094 16.334 21.6062 16.2111 21.825 15.9923C22.0438 15.7735 22.1667 15.4767 22.1667 15.1673V10.5007C22.1667 10.5007 22.1667 10.5007 22.1667 10.4307C22.1545 10.3235 22.1311 10.2179 22.0967 10.1157V10.0107C22.0406 9.89069 21.9657 9.78043 21.875 9.68398L14.875 2.68398C14.7786 2.59324 14.6683 2.51841 14.5483 2.46232C14.5097 2.45556 14.4703 2.45556 14.4317 2.46232C14.3182 2.40165 14.1963 2.35839 14.07 2.33398H7C6.07174 2.33398 5.1815 2.70273 4.52513 3.35911C3.86875 4.01549 3.5 4.90573 3.5 5.83398V22.1673C3.5 23.0956 3.86875 23.9858 4.52513 24.6422C5.1815 25.2986 6.07174 25.6673 7 25.6673H15.1667C15.4761 25.6673 15.7728 25.5444 15.9916 25.3256C16.2104 25.1068 16.3333 24.8101 16.3333 24.5007C16.3333 24.1912 16.2104 23.8945 15.9916 23.6757C15.7728 23.4569 15.4761 23.334 15.1667 23.334ZM15.1667 6.31232L18.1883 9.33398H16.3333C16.0239 9.33398 15.7272 9.21107 15.5084 8.99228C15.2896 8.77348 15.1667 8.47674 15.1667 8.16732V6.31232ZM9.33333 9.33398C9.02391 9.33398 8.72717 9.4569 8.50838 9.67569C8.28958 9.89449 8.16667 10.1912 8.16667 10.5007C8.16667 10.8101 8.28958 11.1068 8.50838 11.3256C8.72717 11.5444 9.02391 11.6673 9.33333 11.6673H10.5C10.8094 11.6673 11.1062 11.5444 11.325 11.3256C11.5437 11.1068 11.6667 10.8101 11.6667 10.5007C11.6667 10.1912 11.5437 9.89449 11.325 9.67569C11.1062 9.4569 10.8094 9.33398 10.5 9.33398H9.33333ZM15.1667 18.6673H9.33333C9.02391 18.6673 8.72717 18.7902 8.50838 19.009C8.28958 19.2278 8.16667 19.5246 8.16667 19.834C8.16667 20.1434 8.28958 20.4401 8.50838 20.6589C8.72717 20.8777 9.02391 21.0007 9.33333 21.0007H15.1667C15.4761 21.0007 15.7728 20.8777 15.9916 20.6589C16.2104 20.4401 16.3333 20.1434 16.3333 19.834C16.3333 19.5246 16.2104 19.2278 15.9916 19.009C15.7728 18.7902 15.4761 18.6673 15.1667 18.6673ZM16.3333 14.0007H9.33333C9.02391 14.0007 8.72717 14.1236 8.50838 14.3424C8.28958 14.5612 8.16667 14.8579 8.16667 15.1673C8.16667 15.4767 8.28958 15.7735 8.50838 15.9923C8.72717 16.2111 9.02391 16.334 9.33333 16.334H16.3333C16.6428 16.334 16.9395 16.2111 17.1583 15.9923C17.3771 15.7735 17.5 15.4767 17.5 15.1673C17.5 14.8579 17.3771 14.5612 17.1583 14.3424C16.9395 14.1236 16.6428 14.0007 16.3333 14.0007Z" fill="#4F7889"/>
</svg>
