<svg width="28" height="28" viewBox="0 0 28 28" fill="none" xmlns="http://www.w3.org/2000/svg">
<path d="M14 2.33398C11.7372 2.33828 9.52451 3.00051 7.63141 4.24001C5.73831 5.47951 4.24652 7.24278 3.33774 9.31505C2.42896 11.3873 2.14241 13.6791 2.51301 15.9114C2.8836 18.1436 3.89533 20.2199 5.42498 21.8873C6.51747 23.0715 7.84341 24.0166 9.31924 24.6631C10.7951 25.3095 12.3888 25.6432 14 25.6432C15.6112 25.6432 17.2049 25.3095 18.6807 24.6631C20.1565 24.0166 21.4825 23.0715 22.575 21.8873C24.1046 20.2199 25.1164 18.1436 25.4869 15.9114C25.8575 13.6791 25.571 11.3873 24.6622 9.31505C23.7534 7.24278 22.2616 5.47951 20.3685 4.24001C18.4754 3.00051 16.2628 2.33828 14 2.33398ZM14 23.334C11.5832 23.3303 9.26204 22.3893 7.52498 20.709C8.05236 19.4251 8.94951 18.327 10.1024 17.5542C11.2554 16.7814 12.612 16.3688 14 16.3688C15.3879 16.3688 16.7446 16.7814 17.8975 17.5542C19.0504 18.327 19.9476 19.4251 20.475 20.709C18.7379 22.3893 16.4168 23.3303 14 23.334ZM11.6666 11.6673C11.6666 11.2058 11.8035 10.7547 12.0599 10.371C12.3163 9.98727 12.6807 9.6882 13.107 9.5116C13.5334 9.33499 14.0026 9.28879 14.4552 9.37882C14.9078 9.46885 15.3236 9.69108 15.6499 10.0174C15.9762 10.3437 16.1984 10.7595 16.2885 11.2121C16.3785 11.6647 16.3323 12.1339 16.1557 12.5602C15.9791 12.9866 15.68 13.351 15.2963 13.6074C14.9126 13.8638 14.4615 14.0007 14 14.0007C13.3811 14.0007 12.7876 13.7548 12.3501 13.3172C11.9125 12.8796 11.6666 12.2862 11.6666 11.6673ZM22.0616 18.6673C21.0193 16.8844 19.4149 15.4975 17.5 14.724C18.094 14.0504 18.4811 13.2198 18.6147 12.3317C18.7483 11.4436 18.6229 10.5358 18.2534 9.71723C17.8838 8.89868 17.286 8.20414 16.5315 7.71694C15.7771 7.22975 14.8981 6.97061 14 6.97061C13.1019 6.97061 12.2229 7.22975 11.4684 7.71694C10.714 8.20414 10.1161 8.89868 9.7466 9.71723C9.37709 10.5358 9.25163 11.4436 9.38526 12.3317C9.51889 13.2198 9.90595 14.0504 10.5 14.724C8.58501 15.4975 6.98069 16.8844 5.93831 18.6673C5.10758 17.2523 4.66865 15.6415 4.66664 14.0007C4.66664 11.5253 5.64997 9.15133 7.40031 7.40099C9.15065 5.65065 11.5246 4.66732 14 4.66732C16.4753 4.66732 18.8493 5.65065 20.5996 7.40099C22.35 9.15133 23.3333 11.5253 23.3333 14.0007C23.3313 15.6415 22.8924 17.2523 22.0616 18.6673Z" fill="#4F7889"/>
</svg>
