<svg width="28" height="28" viewBox="0 0 28 28" fill="none" xmlns="http://www.w3.org/2000/svg">
<path d="M24.8735 11.1423L22.6685 10.4073L23.7068 8.33065C23.8121 8.11329 23.8473 7.86861 23.8076 7.63039C23.7679 7.39217 23.6552 7.17213 23.4852 7.00065L21.0002 4.51565C20.8278 4.34309 20.6056 4.2289 20.365 4.18913C20.1243 4.14937 19.8772 4.18604 19.6585 4.29399L17.5818 5.33232L16.8468 3.12732C16.7692 2.89748 16.6219 2.69755 16.4253 2.55536C16.2288 2.41317 15.9928 2.33579 15.7502 2.33399H12.2502C12.0056 2.33336 11.767 2.40961 11.5681 2.55197C11.3692 2.69433 11.2201 2.8956 11.1418 3.12732L10.4068 5.33232L8.33017 4.29399C8.1128 4.18873 7.86812 4.15353 7.6299 4.19323C7.39168 4.23293 7.17165 4.34559 7.00017 4.51565L4.51517 7.00065C4.3426 7.17305 4.22841 7.39519 4.18865 7.63585C4.14889 7.87651 4.18556 8.12358 4.2935 8.34232L5.33183 10.419L3.12683 11.154C2.89699 11.2316 2.69706 11.379 2.55487 11.5755C2.41268 11.7721 2.3353 12.0081 2.3335 12.2507V15.7507C2.33287 15.9952 2.40912 16.2338 2.55148 16.4327C2.69384 16.6316 2.89511 16.7807 3.12683 16.859L5.33183 17.594L4.2935 19.6707C4.18824 19.888 4.15304 20.1327 4.19274 20.3709C4.23245 20.6091 4.3451 20.8292 4.51517 21.0007L7.00017 23.4857C7.17256 23.6582 7.3947 23.7724 7.63536 23.8122C7.87603 23.8519 8.1231 23.8153 8.34183 23.7073L10.4185 22.669L11.1535 24.874C11.2318 25.1057 11.3809 25.307 11.5798 25.4493C11.7787 25.5917 12.0172 25.668 12.2618 25.6673H15.7618C16.0064 25.668 16.245 25.5917 16.4439 25.4493C16.6428 25.307 16.7919 25.1057 16.8702 24.874L17.6052 22.669L19.6818 23.7073C19.8978 23.8099 20.1401 23.8437 20.3759 23.804C20.6117 23.7644 20.8296 23.6532 21.0002 23.4857L23.4852 21.0007C23.6577 20.8283 23.7719 20.6061 23.8117 20.3655C23.8514 20.1248 23.8148 19.8777 23.7068 19.659L22.6685 17.5823L24.8735 16.8473C25.1033 16.7697 25.3033 16.6224 25.4455 16.4258C25.5877 16.2292 25.665 15.9932 25.6668 15.7507V12.2507C25.6675 12.0061 25.5912 11.7675 25.4489 11.5686C25.3065 11.3697 25.1052 11.2206 24.8735 11.1423ZM23.3335 14.9107L21.9335 15.3773C21.6116 15.4817 21.3162 15.655 21.0679 15.8849C20.8196 16.1149 20.6243 16.3962 20.4955 16.7092C20.3668 17.0222 20.3077 17.3594 20.3223 17.6976C20.3369 18.0357 20.4249 18.3666 20.5802 18.6673L21.2452 19.9973L19.9618 21.2807L18.6668 20.5807C18.3676 20.4316 18.0399 20.3486 17.7059 20.3372C17.3718 20.3258 17.0392 20.3863 16.7305 20.5146C16.4219 20.6429 16.1444 20.8361 15.9169 21.081C15.6894 21.3258 15.5171 21.6168 15.4118 21.934L14.9452 23.334H13.0902L12.6235 21.934C12.5191 21.6121 12.3459 21.3167 12.1159 21.0684C11.8859 20.8201 11.6047 20.6248 11.2917 20.496C10.9787 20.3673 10.6414 20.3082 10.3033 20.3228C9.96513 20.3374 9.63422 20.4254 9.3335 20.5807L8.0035 21.2457L6.72017 19.9623L7.42017 18.6673C7.57544 18.3666 7.66344 18.0357 7.67805 17.6976C7.69267 17.3594 7.63355 17.0222 7.50479 16.7092C7.37604 16.3962 7.18074 16.1149 6.93244 15.8849C6.68413 15.655 6.38877 15.4817 6.06683 15.3773L4.66683 14.9107V13.0907L6.06683 12.624C6.38877 12.5196 6.68413 12.3464 6.93244 12.1164C7.18074 11.8864 7.37604 11.6051 7.50479 11.2921C7.63355 10.9791 7.69267 10.6419 7.67805 10.3038C7.66344 9.96562 7.57544 9.63471 7.42017 9.33399L6.75517 8.03899L8.0385 6.75565L9.3335 7.42065C9.63422 7.57593 9.96513 7.66393 10.3033 7.67854C10.6414 7.69315 10.9787 7.63404 11.2917 7.50528C11.6047 7.37653 11.8859 7.18123 12.1159 6.93292C12.3459 6.68462 12.5191 6.38926 12.6235 6.06732L13.0902 4.66732H14.9102L15.3768 6.06732C15.4813 6.38926 15.6545 6.68462 15.8844 6.93292C16.1144 7.18123 16.3957 7.37653 16.7087 7.50528C17.0217 7.63404 17.3589 7.69315 17.6971 7.67854C18.0352 7.66393 18.3661 7.57593 18.6668 7.42065L19.9968 6.75565L21.2802 8.03899L20.5802 9.33399C20.4311 9.63317 20.3481 9.96089 20.3367 10.295C20.3253 10.629 20.3858 10.9616 20.5141 11.2703C20.6425 11.5789 20.8356 11.8564 21.0805 12.0839C21.3254 12.3114 21.6163 12.4837 21.9335 12.589L23.3335 13.0557V14.9107ZM14.0002 9.33399C13.0772 9.33399 12.1749 9.60768 11.4075 10.1205C10.6401 10.6332 10.0419 11.3621 9.68873 12.2148C9.33552 13.0675 9.2431 14.0058 9.42317 14.9111C9.60323 15.8163 10.0477 16.6478 10.7003 17.3005C11.353 17.9531 12.1845 18.3976 13.0897 18.5777C13.995 18.7577 14.9333 18.6653 15.786 18.3121C16.6387 17.9589 17.3676 17.3607 17.8804 16.5933C18.3931 15.8259 18.6668 14.9236 18.6668 14.0007C18.6668 12.763 18.1752 11.576 17.3 10.7008C16.4248 9.82565 15.2378 9.33399 14.0002 9.33399ZM14.0002 16.334C13.5387 16.334 13.0876 16.1971 12.7038 15.9407C12.3201 15.6844 12.0211 15.3199 11.8444 14.8936C11.6678 14.4672 11.6216 13.9981 11.7117 13.5454C11.8017 13.0928 12.0239 12.6771 12.3503 12.3507C12.6766 12.0244 13.0923 11.8022 13.545 11.7122C13.9976 11.6221 14.4667 11.6683 14.8931 11.8449C15.3195 12.0215 15.6839 12.3206 15.9403 12.7043C16.1967 13.088 16.3335 13.5392 16.3335 14.0007C16.3335 14.6195 16.0877 15.213 15.6501 15.6506C15.2125 16.0882 14.619 16.334 14.0002 16.334Z" fill="#4F7889"/>
</svg>
