<svg width="25" height="24" viewBox="0 0 25 24" fill="none" xmlns="http://www.w3.org/2000/svg">
<path d="M23.373 9.14037L21.168 8.40537L22.2063 6.3287C22.3116 6.11134 22.3468 5.86666 22.3071 5.62844C22.2674 5.39021 22.1547 5.17018 21.9847 4.9987L19.4997 2.5137C19.3273 2.34114 19.1051 2.22694 18.8645 2.18718C18.6238 2.14742 18.3767 2.18409 18.158 2.29204L16.0813 3.33037L15.3463 1.12537C15.2687 0.895526 15.1214 0.695598 14.9248 0.553408C14.7283 0.411217 14.4923 0.333837 14.2497 0.332035H10.7497C10.5051 0.331404 10.2665 0.407657 10.0676 0.550017C9.86872 0.692378 9.71961 0.893644 9.64135 1.12537L8.90634 3.33037L6.82968 2.29204C6.61231 2.18678 6.36764 2.15157 6.12941 2.19128C5.89119 2.23098 5.67116 2.34364 5.49968 2.5137L3.01468 4.9987C2.84211 5.17109 2.72792 5.39324 2.68816 5.6339C2.6484 5.87456 2.68507 6.12163 2.79301 6.34037L3.83135 8.41704L1.62635 9.15204C1.3965 9.22966 1.19657 9.377 1.05438 9.57356C0.912194 9.77012 0.834813 10.0061 0.833012 10.2487V13.7487C0.83238 13.9933 0.908634 14.2319 1.05099 14.4308C1.19335 14.6297 1.39462 14.7788 1.62635 14.857L3.83135 15.592L2.79301 17.6687C2.68775 17.8861 2.65255 18.1307 2.69225 18.369C2.73196 18.6072 2.84461 18.8272 3.01468 18.9987L5.49968 21.4837C5.67207 21.6563 5.89422 21.7705 6.13488 21.8102C6.37554 21.85 6.62261 21.8133 6.84134 21.7054L8.91801 20.667L9.65301 22.872C9.73128 23.1038 9.88039 23.305 10.0793 23.4474C10.2782 23.5897 10.5168 23.666 10.7613 23.6654H14.2613C14.5059 23.666 14.7445 23.5897 14.9434 23.4474C15.1423 23.305 15.2914 23.1038 15.3697 22.872L16.1047 20.667L18.1813 21.7054C18.3973 21.808 18.6396 21.8417 18.8754 21.8021C19.1112 21.7624 19.3291 21.6513 19.4997 21.4837L21.9847 18.9987C22.1572 18.8263 22.2714 18.6042 22.3112 18.3635C22.351 18.1228 22.3143 17.8758 22.2063 17.657L21.168 15.5804L23.373 14.8454C23.6029 14.7677 23.8028 14.6204 23.945 14.4238C24.0872 14.2273 24.1645 13.9913 24.1663 13.7487V10.2487C24.167 10.0041 24.0907 9.76552 23.9484 9.56663C23.806 9.36775 23.6047 9.21863 23.373 9.14037ZM21.833 12.9087L20.433 13.3754C20.1111 13.4798 19.8157 13.653 19.5674 13.883C19.3191 14.113 19.1238 14.3942 18.995 14.7072C18.8663 15.0202 18.8072 15.3575 18.8218 15.6956C18.8364 16.0337 18.9244 16.3646 19.0797 16.6654L19.7447 17.9954L18.4613 19.2787L17.1663 18.5787C16.8672 18.4296 16.5394 18.3466 16.2054 18.3352C15.8713 18.3238 15.5387 18.3843 15.23 18.5127C14.9214 18.641 14.6439 18.8341 14.4164 19.079C14.1889 19.3239 14.0167 19.6148 13.9113 19.932L13.4447 21.332H11.5897L11.123 19.932C11.0186 19.6101 10.8454 19.3147 10.6154 19.0664C10.3854 18.8181 10.1042 18.6228 9.79117 18.4941C9.47817 18.3653 9.1409 18.3062 8.80277 18.3208C8.46464 18.3354 8.13374 18.4234 7.83301 18.5787L6.50301 19.2437L5.21968 17.9604L5.91968 16.6654C6.07495 16.3646 6.16295 16.0337 6.17756 15.6956C6.19218 15.3575 6.13306 15.0202 6.00431 14.7072C5.87555 14.3942 5.68025 14.113 5.43195 13.883C5.18364 13.653 4.88828 13.4798 4.56634 13.3754L3.16634 12.9087V11.0887L4.56634 10.622C4.88828 10.5176 5.18364 10.3444 5.43195 10.1144C5.68025 9.88444 5.87555 9.60319 6.00431 9.29019C6.13306 8.97719 6.19218 8.63993 6.17756 8.3018C6.16295 7.96367 6.07495 7.63276 5.91968 7.33204L5.25468 6.03703L6.53801 4.7537L7.83301 5.4187C8.13374 5.57398 8.46464 5.66197 8.80277 5.67659C9.1409 5.6912 9.47817 5.63208 9.79117 5.50333C10.1042 5.37458 10.3854 5.17928 10.6154 4.93097C10.8454 4.68267 11.0186 4.3873 11.123 4.06537L11.5897 2.66537H13.4097L13.8763 4.06537C13.9808 4.3873 14.154 4.68267 14.384 4.93097C14.6139 5.17928 14.8952 5.37458 15.2082 5.50333C15.5212 5.63208 15.8585 5.6912 16.1966 5.67659C16.5347 5.66197 16.8656 5.57398 17.1663 5.4187L18.4963 4.7537L19.7797 6.03703L19.0797 7.33204C18.9306 7.63122 18.8476 7.95894 18.8362 8.293C18.8248 8.62707 18.8853 8.95969 19.0136 9.26833C19.142 9.57698 19.3351 9.85445 19.58 10.082C19.8249 10.3095 20.1158 10.4817 20.433 10.587L21.833 11.0537V12.9087ZM12.4997 7.33204C11.5767 7.33204 10.6744 7.60573 9.90702 8.11851C9.13959 8.63129 8.54145 9.36012 8.18824 10.2128C7.83503 11.0656 7.74262 12.0039 7.92268 12.9091C8.10274 13.8144 8.5472 14.6459 9.19985 15.2985C9.85249 15.9512 10.684 16.3956 11.5893 16.5757C12.4945 16.7558 13.4328 16.6633 14.2855 16.3101C15.1383 15.9569 15.8671 15.3588 16.3799 14.5914C16.8926 13.8239 17.1663 12.9217 17.1663 11.9987C17.1663 10.761 16.6747 9.57404 15.7995 8.69887C14.9243 7.8237 13.7374 7.33204 12.4997 7.33204ZM12.4997 14.332C12.0382 14.332 11.5871 14.1952 11.2033 13.9388C10.8196 13.6824 10.5206 13.318 10.344 12.8916C10.1674 12.4653 10.1211 11.9961 10.2112 11.5435C10.3012 11.0909 10.5234 10.6751 10.8498 10.3488C11.1761 10.0225 11.5918 9.80023 12.0445 9.7102C12.4971 9.62017 12.9662 9.66638 13.3926 9.84298C13.819 10.0196 14.1834 10.3187 14.4398 10.7024C14.6962 11.0861 14.833 11.5372 14.833 11.9987C14.833 12.6175 14.5872 13.211 14.1496 13.6486C13.712 14.0862 13.1185 14.332 12.4997 14.332Z" fill="white"/>
</svg>
