<svg width="32" height="32" viewBox="0 0 32 32" fill="none" xmlns="http://www.w3.org/2000/svg">
<path d="M20.947 16.946C21.0684 16.8192 21.1635 16.6697 21.227 16.506C21.3604 16.1814 21.3604 15.8173 21.227 15.4927C21.1635 15.329 21.0684 15.1795 20.947 15.0527L16.947 11.0527C16.6959 10.8016 16.3554 10.6606 16.0003 10.6606C15.6453 10.6606 15.3047 10.8016 15.0537 11.0527C14.8026 11.3038 14.6615 11.6443 14.6615 11.9994C14.6615 12.3544 14.8026 12.695 15.0537 12.946L16.787 14.666H12.0003C11.6467 14.666 11.3076 14.8065 11.0575 15.0565C10.8075 15.3066 10.667 15.6457 10.667 15.9994C10.667 16.353 10.8075 16.6921 11.0575 16.9422C11.3076 17.1922 11.6467 17.3327 12.0003 17.3327H16.787L15.0537 19.0527C14.9287 19.1766 14.8295 19.3241 14.7618 19.4866C14.6941 19.6491 14.6593 19.8233 14.6593 19.9994C14.6593 20.1754 14.6941 20.3496 14.7618 20.5121C14.8295 20.6746 14.9287 20.8221 15.0537 20.946C15.1776 21.071 15.3251 21.1702 15.4876 21.2379C15.65 21.3056 15.8243 21.3404 16.0003 21.3404C16.1763 21.3404 16.3506 21.3056 16.5131 21.2379C16.6756 21.1702 16.823 21.071 16.947 20.946L20.947 16.946ZM29.3337 15.9994C29.3337 13.3623 28.5517 10.7844 27.0866 8.59175C25.6215 6.3991 23.5391 4.69013 21.1028 3.68096C18.6664 2.67179 15.9855 2.40775 13.3991 2.92222C10.8127 3.43669 8.43694 4.70656 6.57224 6.57126C4.70754 8.43596 3.43766 10.8117 2.92319 13.3982C2.40872 15.9846 2.67277 18.6655 3.68194 21.1018C4.69111 23.5382 6.40007 25.6205 8.59273 27.0856C10.7854 28.5507 13.3632 29.3327 16.0003 29.3327C19.5366 29.3327 22.9279 27.9279 25.4284 25.4274C27.9289 22.927 29.3337 19.5356 29.3337 15.9994V15.9994ZM5.33366 15.9994C5.33366 13.8897 5.95925 11.8274 7.13132 10.0733C8.30339 8.31915 9.9693 6.95198 11.9184 6.14464C13.8675 5.33731 16.0122 5.12607 18.0813 5.53765C20.1504 5.94922 22.051 6.96512 23.5428 8.45688C25.0346 9.94864 26.0505 11.8493 26.462 13.9184C26.8736 15.9875 26.6624 18.1322 25.855 20.0813C25.0477 22.0304 23.6805 23.6963 21.9264 24.8684C20.1723 26.0404 18.11 26.666 16.0003 26.666C13.1714 26.666 10.4582 25.5422 8.45786 23.5418C6.45747 21.5414 5.33366 18.8283 5.33366 15.9994V15.9994Z" fill="#4F7889"/>
</svg>
